<svg xmlns="http://www.w3.org/2000/svg" xml:space="preserve" width="2000" height="145" data-id="lg_UnYCL4LqG20KUgszqL" data-version="1" viewBox="0 0 2000 145"><g data-padding="20"><g transform="translate(10 2.487)scale(.9657)"><rect width="583" height="137.86" x="321.669" y="-397.94" fill="none" rx="0" ry="0" transform="translate(412 397.77)"/><path fill="#2d2d2d" d="M795.229 70.18h36.34q.66 0 .66.92t-.66 1.28q-1.61.66-3.3 1.13-1.7.48-3.13 1.25-3.28 1.79-3.28 5.78V99.9q0 1.31-6.28 3.52-6.29 2.2-10.22 3.21-18.41 4.53-32.88-.95-16.62-6.37-23.53-22.81-3.46-8.23-3.46-16.36t1.61-13.67q4.89-16.92 20.49-26.03 10.19-5.96 21.42-5.96t23.86 4.53q2.32.83 2.62.83h.71l2.39-.59h1.48q.66 0 .66.65v19.84q0 1.13-1.31 1.13h-.24q-1.13-.12-1.55-3.04l-.18-.89q-5.95-18.64-25.13-18.64-15.37 0-24.52 11.61-9.14 11.62-9.14 27.64 0 16.03 9.2 28.33 9.21 12.3 25.29 12.3 8.28 0 13.64-2.56 2.09-1.01 3.22-2.56V83.1q0-5.54-3.16-8.13t-11.62-2.59q-.65 0-.65-1.1t.65-1.1m80.36-5.79q-.71-.12-2.08-.78-4.94-2.26-7.74-2.26t-5.87 3.49q-3.07 3.48-3.07 6.28v26.93q0 4.46 5.18 5.95 2.27.6 4.23.87 1.97.26 2.53.5.57.24.57.93 0 .68-.6.8h-29.84q-.6-.12-.6-.83 0-1.08 2.8-1.43 6.44-.96 6.44-6.79V66.53q0-2.5-2.74-3.45-1.19-.42-2.56-.69-1.38-.26-2.18-.5t-1.01-.45-.21-.89q0-.69.89-1.17l15.19-7.14q.72-.36.9-.36 1.01 0 1.01 1.43v9.65q0 .71.36.71.47 0 2.44-2.8 5.66-7.92 9.35-7.92 2.09 0 6.41 1.67 4.31 1.67 4.31 2.8 0 1.37-1.37 4.17t-2.74 2.8m52.43 11.32h-34.55q-1.02 0-1.02 4.35 0 9.23 5.48 15.48 5.48 6.26 13.62 6.26 8.13 0 15.63-7.03.12-.12.3-.12h.3q.36 0 .68.57.33.56.63.74-6.91 8.4-16.26 11.62-3.22 1.13-7.27 1.13t-8.22-2.23q-4.17-2.24-7.15-5.87-6.32-7.57-6.32-18.86 0-11.28 6.89-20.58 6.88-9.29 18.91-9.29 8.64 0 14.12 7.71 5.48 7.72 5.48 13.56 0 2.56-1.25 2.56m-33.9-6.44v.72q0 1.13 1.07 1.13h22.46q1.55 0 1.55-1.85 0-4.29-3.84-8.78-3.84-4.5-8.43-4.5-4.47 0-8.13 4.05-3.67 4.05-4.68 9.23m33.06-36.04q0 5.31-4.17 7.09-1.31.54-3.48.54-2.18 0-4.23-1.97-2.06-1.96-2.06-4.91t2.06-5.01q2.05-2.05 4.94-2.05t4.92 2.02q2.02 2.03 2.02 4.29m-30.74 7.63q-2.97 0-4.97-2-2-1.99-2-4.88t2-4.98q2-2.08 4.97-2.08 2.98 0 4.98 2.08 1.99 2.09 1.99 4.98t-1.99 4.88q-2 2-4.98 2m87.45 16.74 15.97-.72q1.37 0 1.79.3.41.3.89 2.06.48 1.75.48 3.3t-.3 1.79-1.19.24h-13.23q.36.65.78 1.37.41.71 1.07 2.38.65 1.67.65 5.15 0 3.49-1.69 7.27-1.7 3.78-4.98 6.7-7.27 6.56-18.82 6.56-3.04 0-6.67-1.14-.9.96-2.39 1.76t-2.92 1.64q-3.57 2.02-3.57 4.05 0 5.06 16.8 5.18t22.07 1.1q5.27.99 8.19 3.91 4.59 4.58 4.59 10.48 0 5.06-4.35 10.43-7.57 9.47-23.11 12.62-5.54 1.14-11.74 1.14-11.26 0-17.1-4.08-5.83-4.08-5.83-9.86 0-3.16 1.48-5.22 1.49-2.05 3.79-3.87 2.29-1.81 5.03-3.81t5.24-5.09q-5.72-.48-9.8-3.64-4.08-3.15-4.08-6.19t1.61-4.5 3.93-2.5q2.33-1.04 4.89-1.94 2.56-.89 4.47-2.32-6.68-2.62-10.31-7.24t-3.63-10.1q0-10.18 7.41-16.62 7.42-6.43 17.9-6.43 10.49 0 16.68 5.84m-32.37 62.13q-1.4 1.37-2.3 2.92-.89 1.55-.89 3.9t1.7 4.94q1.7 2.6 4.61 4.68 6.44 4.77 15.49 4.77 9.06 0 16.41-5.28 7.36-5.27 7.36-11.55 0-6.29-6.08-8.43-2.85-.95-14.71-1.19-11.85-.24-15.37-.66-1.55 1.79-3.19 3.16-1.63 1.37-3.03 2.74m29.51-46.29q0-8.4-4.2-13.67t-11.11-5.27q-8.93 0-12.62 8.4-1.43 3.22-1.43 7.39 0 8.51 3.51 14.17 4.29 6.8 11.26 6.8t10.78-4.71 3.81-13.11m142.02-39.97v62.85q0 8.04 11.14 8.4.48 0 .48.47v1.43q0 .48-.48.48h-37.89q-.47 0-.47-.48v-1.43q0-.47 2.97-.47 2.98 0 6.8-1.31 5.83-1.91 5.83-6.44V68.56q0-.6-.18-.78-.17-.17-.77-.17h-46.94q-.6 0-.78.17-.17.18-.17.78v29.01q0 7.15 10.54 7.15.48 0 .48.47v1.43q0 .48-.42.48h-32.88q-.48 0-.48-.48v-1.43q0-.47 1.19-.47 9.95 0 9.95-8.52V32.64q0-6.97-8.28-7.39-1.25-.06-1.25-.53v-1.14q0-.47.42-.47h29.9q.48 0 .48.47v1.14q0 .35-1.14.35-8.51 0-8.51 8.4v27.52q0 .6.17.78.18.18.78.18h46.94q.6 0 .77-.18.18-.18.18-.78V32.52q-.12-.54-.15-.98-.03-.45-.2-1.4-.42-2.03-4.23-3.31-3.82-1.28-8.64-1.64-.48 0-.48-.47v-1.14q0-.47.42-.47h34.37q.48 0 .48.47v1.14q0 .35-1.13.35-8.82 0-8.82 8.4m57.19 63.81q0 1.55 1.46 2.47 1.46.93 3.36.93 1.91 0 3.19-.99 1.28-.98 1.76-.98.47 0 .47 1.28t-1.19 2.18q-8.93 6.55-12.09 6.55-3.81 0-6.2-7.92-.18-.6-.29-.54-7.39 5.54-9.3 6.67-4.88 2.8-9.8.9-4.91-1.91-7.12-6.32-1.07-2.26-1.07-4.82 0-5.07 3.76-8.05 3.75-2.97 14.29-5.71 3.58-.96 6.38-2.45t2.95-1.9q.14-.42.14-.78V66.36q0-6.73-5.24-9.47-1.73-.89-4.14-.89t-4.88 1.91q-2.48 1.9-2.48 5.42l.3 2.32q-.35.71-4.29 2.38-3.93 1.67-4.52 1.79-.96 0-.96-2.29 0-2.3 1.37-5.1t3.88-5.12q5.83-5.42 13.34-5.42 7.5 0 12.21 4.14t4.71 9.86Zm-27.46-1.73q0 2.86 2.2 4.98 2.2 2.11 5.03 2.11t6.88-2.41 4.05-4.97v-12.1q0-.65-.29-.65-.3 0-.42.06l-13.82 6.43q-2.15 1.55-2.89 2.62t-.74 3.93m29.01-62.31q0 5.31-4.17 7.09-1.31.54-3.49.54-2.17 0-4.23-1.97-2.05-1.96-2.05-4.91t2.05-5.01q2.06-2.05 4.95-2.05t4.91 2.02q2.03 2.03 2.03 4.29m-30.74 7.63q-2.98 0-4.98-2-1.99-1.99-1.99-4.88t1.99-4.98q2-2.08 4.98-2.08t4.97 2.08q2 2.09 2 4.98t-2 4.88q-1.99 2-4.97 2m81.31 23.52q-.71-.12-2.08-.78-4.95-2.26-7.75-2.26t-5.87 3.49q-3.06 3.48-3.06 6.28v26.93q0 4.46 5.18 5.95 2.26.6 4.23.87 1.96.26 2.53.5t.57.93q0 .68-.6.8h-29.84q-.6-.12-.6-.83 0-1.08 2.8-1.43 6.43-.96 6.43-6.79V66.53q0-2.5-2.74-3.45-1.19-.42-2.56-.69-1.37-.26-2.17-.5-.81-.24-1.02-.45-.2-.21-.2-.89 0-.69.89-1.17l15.19-7.14q.72-.36.89-.36 1.02 0 1.02 1.43v9.65q0 .71.35.71.48 0 2.45-2.8 5.66-7.92 9.35-7.92 2.08 0 6.4 1.67t4.32 2.8q0 1.37-1.37 4.17t-2.74 2.8m34.85 42.71h-26.57q-.59-.12-.59-.83 0-1.08 2.8-1.43 6.43-.96 6.43-6.79V66.53q0-2.5-2.74-3.45-1.19-.42-2.56-.69-1.37-.26-2.18-.5-.8-.24-1.01-.45t-.21-.89q0-.69.9-1.17l15.19-7.14q.71-.36.89-.36 1.01 0 1.01 1.43v44.74q0 5.83 6.44 6.79 2.8.35 2.8 1.25 0 .89-.6 1.01m-14.15-71.96q-2.47 0-4.35-1.55-1.87-1.55-1.87-4.32t1.78-4.38q1.79-1.6 4.26-1.6 2.48 0 4.17 1.9 1.7 1.91 1.7 4.11 0 2.21-1.61 4.02-1.61 1.82-4.08 1.82m50.79 25.73v5.48q0 1.32-.99 1.32-.98 0-1.52-1.43-1.43-3.94-4.26-6.97-2.83-3.04-7-3.04-5.48 0-7.38 5.48-.6 1.84-.6 3.81t2.5 4.38q2.51 2.41 8.22 5.75 5.72 3.33 8.34 5.66 5.96 5.3 5.96 12.27t-5.12 11.05-11.92 4.08q-3.63 0-6.58-.98-2.95-.99-3.39-.99-.45 0-1.43.99-.99.98-1.58.98h-1.01q-.36 0-.9-6.43-.53-6.44-.53-7.63t.2-1.31q.21-.12.69-.12t.8.3q.33.3.57.74.24.45.39.93.15.47.74 1.78 4.05 8.64 12.51 8.64 3.75 0 6.02-2.77 2.26-2.77 2.26-6.16 0-3.4-1.79-5.72-1.78-2.33-4.43-4.23-2.65-1.91-5.75-3.7-12.04-7.02-12.04-15.54 0-6.38 5.49-10.99 5.48-4.62 11.25-4.62 5.78 0 8.55 1.25t3.25 2.11q.48.87.48 5.63"/></g><path fill="transparent" stroke="transparent" d="M708.5 0h583v145h-583z"/></g></svg>